<svg viewBox="26.880000000000003 308.48 747.2 184" version="1.1" xmlns:xlink="http://www.w3.org/1999/xlink" xmlns="http://www.w3.org/2000/svg" style="max-height: 500px" width="747.2" height="184">
<defs>
<clipPath id="clip_0">
<path d="M0 800H800V0H0Z" transform="matrix(1,0,0,-1,0,800)"/>
</clipPath>
<clipPath id="clip_1">
<path d="M-248.035-59.5301H248.035V59.5301H-248.035Z" transform="matrix(1.4816457,0,0,-1.4816457,400,400)"/>
</clipPath>
</defs>
<g>
<g clip-path="url(#clip_0)">
<g clip-path="url(#clip_1)">
<path fill="#b51f29" d="M0 0C-32.6 0-59.53 25.51-59.53 59.53-59.53 93.54-32.6 119.06 0 119.06 32.6 119.06 59.53 93.55 59.53 59.53 59.53 25.51 32.6 0 0 0M0 90.71C-17.01 90.71-29.05 76.54-29.05 59.53-29.05 42.52-17 28.35 0 28.35 17.01 28.35 29.05 42.52 29.05 59.53 29.05 76.53 17.01 90.71 0 90.71M-126.14 0C-158.74 0-185.67 25.51-185.67 59.53-185.67 93.54-158.74 119.06-126.14 119.06-103.46 119.06-89.31 107.77-89.31 107.77L-107.01 85.76C-107.01 85.76-113.39 91.43-126.14 91.43-143.15 91.43-155.19 76.55-155.19 59.54-155.19 42.53-143.14 28.36-126.14 28.36-111.97 28.36-104.88 34.03-104.88 34.03V48.2H-128.98V73H-77.96V19.85C-77.95 19.84-93.55 0-126.14 0ZM-256.54 0C-282.05 .05-307.56 17.01-307.56 51.02V116.22H-276.38L-276.4 48.19C-276.4 34.02-265.04 28.35-256.54 28.35-248.04 28.35-236.68 34.02-236.68 48.19L-236.7 116.22H-205.52V51.02C-205.51 17-231.02-.06-256.54 0ZM-365.67 116.22V73.7H-405.36V116.22H-436.54V2.83H-405.36V48.19H-365.67V2.83H-334.49V116.22Z" transform="matrix(1.4816457,0,0,-1.4816457,679.2976,488.2022)"/>
</g>
</g>
</g>
</svg>