<?xml version="1.0" encoding="utf-8"?>
<!-- Generator: Adobe Illustrator 16.0.3, SVG Export Plug-In . SVG Version: 6.00 Build 0)  -->
<!DOCTYPE svg PUBLIC "-//W3C//DTD SVG 1.1//EN" "http://www.w3.org/Graphics/SVG/1.1/DTD/svg11.dtd">
<svg version="1.1" id="Layer_1" xmlns="http://www.w3.org/2000/svg" xmlns:xlink="http://www.w3.org/1999/xlink" x="0px" y="0px"
	 width="766.766px" height="425.536px" viewBox="0 0 766.766 425.536" enable-background="new 0 0 766.766 425.536"
	 xml:space="preserve">
<g>
	<path fill-rule="evenodd" clip-rule="evenodd" fill="#ED1C24" d="M38.005,423.26v-72.188l0.189-4.103l0.445-3.984l0.701-3.89
		l0.986-3.745l1.264-3.634l1.546-3.469l1.851-3.327l2.203-3.141l2.507-2.999l2.859-2.786l2.109-2.016l2.32-1.734l2.484-1.479
		l2.648-1.239l2.789-1.01l2.857-0.771l2.929-0.588l2.976-0.375l3-0.162l2.976-0.025h39.153v-38.589H72.825l-5.507,0.35l-5.481,0.869
		l-5.413,1.334l-5.296,1.76l-5.179,2.155l-5.015,2.531l-4.804,2.812l-4.567,3.094l-4.289,3.323l-3.984,3.515l-4.171,4.244
		l-3.82,4.546l-3.442,4.921l-3.023,5.292l-2.625,5.671l-2.179,6.118l-1.734,6.535l-1.265,7.03l-0.773,7.499L0,349.62v73.641H38.005
		L38.005,423.26z M168.026,423.26V267.888h-39.715V423.26H168.026L168.026,423.26z M332.607,423.192V386.99h-64.811l-2.882-0.115
		l-2.882-0.119l-2.88-0.141l-2.861-0.188l-2.856-0.281l-2.812-0.35l-2.742-0.515l-2.718-0.656l-2.648-0.844l-2.554-1.078
		l-4.031-2.135l-3.585-2.433l-3.187-2.744l-2.763-3.046l-2.367-3.349l-1.992-3.682l-1.617-4.005l-1.219-4.337l-0.89-4.661
		l-0.516-5.015l0.164-5.999l1.242-5.948l2.25-5.743l3.187-5.364l4.029-4.899l4.827-4.239l5.507-3.469l6.116-2.556l6.678-1.5
		l7.145-0.281l5.085,0.541l4.733,1.078l4.358,1.567l4.005,2.016l3.655,2.438l3.306,2.812l2.951,3.166l2.578,3.468l2.25,3.724
		l1.898,3.958h-49.206v36.531h88.382l-0.094-35.475l-0.328-4.452l-0.961-4.546l-1.476-4.614l-1.943-4.64l-2.346-4.593l-2.622-4.479
		l-2.882-4.354l-3.023-4.171l-3.117-3.915l-3.117-3.609l-4.054-3.677l-4.591-3.493l-5.038-3.209l-5.39-2.927l-5.671-2.578
		l-5.858-2.202l-5.926-1.76l-5.952-1.287l-5.882-0.775l-5.716-0.234l-6.795,0.354l-6.515,0.912l-6.28,1.385l-5.975,1.85
		l-5.716,2.274l-5.413,2.672l-5.108,3.021l-4.804,3.328l-4.497,3.63l-4.171,3.868l-3.726,4.005l-3.538,4.453l-3.304,4.806
		l-3.023,5.177l-2.669,5.483l-2.273,5.718l-1.851,5.973l-1.336,6.114l-0.797,6.28l-0.189,6.374l0.354,6.608l0.797,6.395l1.242,6.212
		l1.685,5.952l2.109,5.692l2.507,5.437l2.929,5.155l3.304,4.827l3.7,4.521l4.08,4.172l4.825,4.358l4.804,3.911l4.897,3.447
		l5.109,2.974l5.483,2.53l5.926,2.063l6.562,1.594l7.264,1.146l8.155,0.682l9.114,0.234H332.607L332.607,423.192z M388.138,423.26
		v-54.966l64.438,54.966h62.162l-92.084-77.671l78.284-77.701h-55.252l-57.267,57.268V183.865h-42.596V423.26H388.138
		L388.138,423.26z M149.024,260.134l3.468-3.094l3.468-3.093l3.49-3.067l3.515-3.047l3.539-3.024l3.562-3l3.608-2.952l3.632-2.928
		l3.679-2.88l3.724-2.838l-1.828-3.911l-2.013-4.052l-2.109-4.175l-2.133-4.31l-2.085-4.382l-1.921-4.5l-1.688-4.546l-1.382-4.591
		l-1.008-4.64l-0.516-4.64l0.023-0.679l0.117-0.516l0.211-0.422l0.281-0.305l0.352-0.211l0.422-0.164l0.469-0.094l0.516-0.07
		l0.515-0.07l0.539-0.07l2.25-0.023l1.781,0.539l1.406,1.031l1.076,1.406l0.846,1.711l0.679,1.945l0.609,2.062l0.561,2.085
		l0.658,2.039l0.771,1.896l1.546,3.093l1.641,3.046l1.734,2.929l1.922,2.765l2.109,2.578l2.367,2.32l2.671,1.992l3,1.664
		l3.372,1.239l3.822,0.797l0.631,0.094l0.682,0.094l0.677,0.072l0.682,0.021l0.701-0.021l0.703-0.098l0.703-0.205l0.703-0.307
		l0.703-0.447l0.703-0.606l-1.875-3.023l-1.873-3.046l-1.828-3.14l-1.734-3.233l-1.619-3.375l-1.451-3.539l-1.268-3.724
		l-1.006-3.937l-0.726-4.218l-0.424-4.476h14.107v-27.603h-11.808l0.305-1.828l0.513-1.781l0.682-1.732l0.844-1.641l1.008-1.5
		l1.171-1.289l1.336-1.101l1.451-0.82l1.593-0.516l1.734-0.188h0.82l0.75,0.023l0.703,0.047l0.609,0.094l0.586,0.117l0.539,0.188
		l0.492,0.258l0.445,0.352l0.422,0.422l0.398,0.516l1.804,3.421l1.242,3.794l0.773,4.124l0.398,4.359l0.117,4.522l-0.047,4.569
		l-0.164,4.546l-0.164,4.45l-0.047,4.241l0.117,3.984l0.258,2.859l0.422,2.648l0.586,2.39l0.797,2.132l1.054,1.849l1.31,1.549
		l1.619,1.24l1.943,0.939l2.296,0.563l2.671,0.232l2.414-0.094l2.203-0.305l2.039-0.516l1.851-0.701l1.734-0.843l1.593-0.984
		l1.523-1.057l1.429-1.146l1.406-1.195l1.359-1.197l0.727-0.583l0.771-0.563l0.797-0.563l0.775-0.539l0.773-0.586l0.701-0.609
		l0.609-0.656l0.541-0.75l0.396-0.844l0.234-0.938v-0.96l-0.305-0.773l-0.562-0.633l-0.701-0.563l-0.799-0.539l-0.82-0.539
		l-0.773-0.633l-0.631-0.75l-0.421-0.914l-0.164-1.171l0.421-6.559l1.193-5.976l1.71-5.554l2.109-5.226l2.297-5.106l2.296-5.087
		l2.109-5.247l1.757-5.577l1.172-5.999l0.469-6.63l-0.094-2.742l-0.305-2.531l-0.492-2.32l-0.68-2.156l-0.82-1.992l-0.984-1.828
		l-1.078-1.734l-1.218-1.594l-1.289-1.521l-1.382-1.453l-1.688-1.596l-1.851-1.474l-1.968-1.383l-2.107-1.242l-2.25-1.078
		l-2.391-0.89l-2.554-0.727l-2.671-0.492l-2.835-0.281l-3-0.023l-6.749,0.563l-6.396,1.171l-6.045,1.734l-5.694,2.296l-5.272,2.763
		l-4.872,3.236l-4.429,3.656l-4.007,4.028l-3.539,4.358l-3.046,4.661l-1.617,2.908l-1.451,2.927l-1.314,2.976l-1.219,3.023
		l-1.146,3.07l-1.08,3.117l-1.052,3.187l-1.031,3.233l-1.078,3.281l-1.101,3.349l-0.398,0.632l-0.656,0.518l-0.867,0.396
		l-0.984,0.258l-1.008,0.117l-0.984-0.023l-0.867-0.188l-0.68-0.375l-0.398-0.56l-0.07-0.775l0.844-4.289l1.078-4.216l1.289-4.171
		l1.453-4.148l1.593-4.101l1.664-4.099l1.711-4.077l1.71-4.101l1.708-4.101l1.619-4.125l1.195-3.023l1.216-3.07l1.242-3.093
		l1.195-3.162l1.101-3.257l1.031-3.351l0.867-3.444l0.68-3.585l0.492-3.747l0.211-3.916L191.95,69.31l-1.898-10.145l-3.07-9.139
		l-4.054-8.316l-4.825-7.663l-5.39-7.147l-5.741-6.819l-5.905-6.655l-5.856-6.629L149.609,0h-0.234h-0.234h-0.234h-0.234h-0.234
		h-0.234h-0.234h-0.234h-0.211h-0.234l-5.249,6.702l-5.53,6.491l-5.601,6.419l-5.481,6.538l-5.155,6.843l-4.663,7.309l-3.981,7.967
		l-3.07,8.764l-1.992,9.77l-0.703,10.92l0.56,8.952l1.502,8.293l2.25,7.803l2.742,7.428l2.998,7.192l3.07,7.101l2.882,7.145
		l2.484,7.358l1.828,7.663l0.984,8.153l-0.141,0.377l-0.375,0.305l-0.586,0.186l-0.75,0.117l-0.796,0.047l-0.844-0.047l-0.773-0.141
		l-0.679-0.211l-0.516-0.279l-0.305-0.354l-0.867-2.294l-0.75-2.39l-0.656-2.414l-0.609-2.437l-0.586-2.437l-0.609-2.414
		l-0.679-2.367l-0.773-2.273l-0.891-2.203l-1.078-2.06l-3.232-5.319l-3.492-5.132l-3.819-4.874l-4.148-4.57l-4.546-4.146
		l-4.989-3.705l-5.462-3.138l-6.021-2.508l-6.585-1.828l-7.192-1.055l-5.46-0.14l-5.343,0.468l-5.132,1.055l-4.804,1.687
		l-4.382,2.273l-3.817,2.882l-3.14,3.466l-2.414,4.054l-1.5,4.64l-0.539,5.226l0.445,6.655l1.218,6.28l1.805,5.997l2.203,5.788
		l2.39,5.647l2.365,5.622l2.203,5.671l1.804,5.835l1.219,6.022l0.445,6.348l-0.117,0.984l-0.328,0.82l-0.514,0.679l-0.635,0.563
		l-0.701,0.516l-0.775,0.492l-0.773,0.516l-0.724,0.563l-0.658,0.656l-0.514,0.82l-0.424,1.382l0.117,1.336l0.539,1.289l0.89,1.218
		l1.172,1.172l1.359,1.125l1.453,1.055l1.476,1.031l1.383,0.984l1.242,0.914l1.054,0.75l1.125,0.701l1.195,0.635l1.266,0.561
		l1.335,0.492l1.383,0.445l1.429,0.398l1.453,0.354l1.5,0.303l1.5,0.258l1.382,0.164l1.453,0.096l1.474-0.023l1.5-0.119l1.43-0.232
		l1.361-0.354l1.216-0.467l1.078-0.609l0.867-0.729l0.609-0.889l1.898-5.038l1.008-5.53l0.328-5.882l-0.07-6.093l-0.234-6.208
		l-0.164-6.187l0.164-5.999l0.703-5.715l1.546-5.296l2.578-4.757l0.281-0.328l0.305-0.257l0.305-0.164l0.328-0.117l0.328-0.047
		l0.328-0.023l0.375,0.023l0.375,0.023l0.422,0.023h0.422l1.898,0.188l1.685,0.539l1.477,0.844l1.268,1.125l1.099,1.359l0.891,1.591
		l0.75,1.734l0.563,1.875l0.445,1.971l0.281,2.036H84.002v27.603h15.253l-0.234,4.265l-0.796,4.054l-1.266,3.89l-1.664,3.7
		l-1.945,3.539l-2.179,3.445l-2.318,3.351l-2.367,3.281l-2.322,3.234l-2.203,3.208l0.19,0.213l0.211,0.186l0.21,0.166l0.234,0.141
		l0.258,0.115l0.303,0.119l0.305,0.072l0.354,0.068l0.398,0.047l0.422,0.021l4.638-0.094l4.171-0.795l3.726-1.382l3.351-1.898
		l3-2.367l2.692-2.718l2.439-3l2.226-3.21l2.06-3.325l1.923-3.351l0.748-1.57l0.611-1.734l0.537-1.828l0.539-1.898l0.563-1.828
		l0.656-1.734l0.773-1.547l0.96-1.289l1.195-0.984l1.476-0.563l0.797-0.164l0.82-0.117l0.82-0.094l0.797-0.047l0.75,0.023
		l0.656,0.096l0.585,0.208l0.422,0.284l0.305,0.421l0.094,0.561l-0.258,5.366l-0.797,5.038l-1.242,4.731l-1.594,4.499l-1.875,4.289
		l-2.085,4.147l-2.226,4.029l-2.248,3.962l-2.25,3.984l-2.109,3.983l3.56,3.187l3.632,3.209l3.656,3.187l3.679,3.187l3.726,3.188
		l3.701,3.114l3.703,3.093l3.679,3.047l3.609,2.974L149.024,260.134L149.024,260.134z M633.255,423.192V386.99H568.49l-2.88-0.115
		l-2.905-0.119l-2.885-0.141l-2.859-0.188l-2.858-0.281l-2.786-0.35l-2.766-0.515l-2.718-0.656l-2.646-0.844l-2.556-1.078
		l-4.006-2.135l-3.608-2.433l-3.187-2.744l-2.766-3.046l-2.369-3.349l-1.989-3.682l-1.615-4.005l-1.244-4.337l-0.864-4.661
		l-0.516-5.015l0.162-5.999l1.265-5.948l2.25-5.743l3.187-5.364l4.031-4.899l4.802-4.239l5.509-3.469l6.14-2.556l6.655-1.5
		l7.145-0.281l5.083,0.541l4.733,1.078l4.358,1.567l4.01,2.016l3.651,2.438l3.28,2.812l2.953,3.166l2.603,3.468l2.25,3.724
		l1.896,3.958h-49.206v36.531h88.36l-0.047-35.475l-0.328-4.452l-0.963-4.546l-1.474-4.614l-1.947-4.64l-2.344-4.593l-2.646-4.479
		l-2.858-4.354l-3.047-4.171l-3.114-3.915l-3.119-3.609l-4.052-3.677l-4.593-3.493l-5.04-3.209l-5.386-2.927l-5.649-2.578
		l-5.858-2.202l-5.948-1.76l-5.952-1.287l-5.905-0.775l-5.717-0.234l-6.774,0.354l-6.511,0.912l-6.259,1.385l-5.999,1.85
		l-5.692,2.274l-5.411,2.672l-5.108,3.021l-4.806,3.328l-4.499,3.63l-4.171,3.868l-3.725,4.005l-3.536,4.453l-3.306,4.806
		l-3.021,5.177l-2.671,5.483l-2.297,5.718l-1.854,5.973l-1.333,6.114l-0.797,6.28l-0.213,6.374l0.354,6.608l0.797,6.395l1.266,6.212
		l1.687,5.952l2.109,5.692l2.53,5.437l2.928,5.155l3.306,4.827l3.703,4.521l4.073,4.172l4.827,4.358l4.806,3.911l4.896,3.447
		l5.108,2.974l5.458,2.53l5.952,2.063l6.54,1.594l7.285,1.146l8.13,0.682l9.139,0.234H633.255L633.255,423.192z M685.93,423.26
		v-72.188l0.208-4.103l0.447-3.984l0.703-3.89l0.959-3.745l1.266-3.634l1.547-3.469l1.874-3.327l2.178-3.141l2.53-2.999l2.859-2.786
		l2.108-2.016l2.297-1.734l2.51-1.479l2.646-1.239l2.765-1.01l2.859-0.771l2.927-0.588l2.979-0.375l2.999-0.162l2.975-0.025h39.201
		v-38.589h-45.997l-5.505,0.35l-5.483,0.869l-5.411,1.334l-5.321,1.76l-5.177,2.155l-5.015,2.531l-4.802,2.812l-4.571,3.094
		l-4.286,3.323l-3.984,3.515l-4.171,4.244l-3.817,4.546l-3.421,4.921l-3.047,5.292l-2.625,5.671l-2.181,6.118l-1.734,6.535
		l-1.261,7.03l-0.775,7.499l-0.261,8.014v73.641H685.93L685.93,423.26z M729.699,409.46l-0.047-1.313l-0.141-1.286l-0.234-1.219
		l-0.354-1.219l-0.422-1.15l-0.515-1.125l-0.609-1.078l-0.725-1.03l-0.797-1.006l-0.891-0.959l-0.963-0.891l-1.005-0.822
		l-1.053-0.702l-1.082-0.609l-1.1-0.537l-1.172-0.422l-1.192-0.328l-1.244-0.234l-1.287-0.141l-1.312-0.047l-1.313,0.047
		l-1.266,0.141l-1.244,0.234l-1.193,0.328l-1.171,0.422l-1.104,0.537l-1.1,0.609l-1.031,0.702l-1.01,0.822l-0.958,0.891
		l-0.891,0.959l-0.797,1.006l-0.729,1.03l-0.609,1.078l-0.516,1.125l-0.422,1.15l-0.324,1.219l-0.238,1.219l-0.141,1.286
		l-0.042,1.313l0.042,1.313l0.141,1.291l0.238,1.218l0.324,1.219l0.422,1.146l0.516,1.125l0.609,1.077l0.729,1.057l0.797,1.006
		l0.891,0.963l0.958,0.891l1.01,0.797l1.031,0.698l1.1,0.613l1.104,0.512l1.171,0.422l1.193,0.307l1.244,0.234l1.266,0.141
		l1.313,0.047l1.312-0.047l1.287-0.141l1.244-0.234l1.192-0.307l1.172-0.422l1.1-0.512l1.082-0.613l1.053-0.698l1.005-0.797
		l0.963-0.891l0.891-0.963l0.797-1.006l0.725-1.057l0.609-1.077l0.515-1.125l0.422-1.146l0.354-1.219l0.234-1.218l0.141-1.291
		L729.699,409.46L729.699,409.46z M727.846,409.46l-0.047,1.172l-0.115,1.124l-0.213,1.104l-0.281,1.053l-0.375,1.031l-0.469,1.01
		l-0.537,0.959l-0.635,0.916l-0.703,0.89l-0.797,0.844l-0.844,0.797l-0.886,0.725l-0.938,0.635l-0.963,0.537l-0.984,0.442
		l-1.031,0.4l-1.077,0.281l-1.1,0.209l-1.15,0.119l-1.172,0.047l-1.15-0.047l-1.12-0.119l-1.104-0.209l-1.053-0.281l-1.031-0.4
		l-0.983-0.442l-0.963-0.537l-0.938-0.635l-0.891-0.725l-0.844-0.797l-0.797-0.844l-0.703-0.89l-0.63-0.916l-0.541-0.959
		l-0.469-1.01l-0.375-1.031l-0.303-1.053l-0.213-1.104l-0.115-1.124l-0.047-1.172l0.047-1.172l0.115-1.125l0.213-1.099l0.303-1.057
		l0.375-1.031l0.469-0.984l0.541-0.959l0.63-0.937l0.703-0.891l0.797-0.844l0.844-0.797l0.891-0.703l0.938-0.631l0.963-0.541
		l0.983-0.469l1.031-0.375l1.053-0.302l1.104-0.213l1.12-0.12l1.15-0.042l1.172,0.042l1.15,0.12l1.1,0.213l1.077,0.302l1.031,0.375
		l0.984,0.469l0.963,0.541l0.938,0.631l0.886,0.703l0.844,0.797l0.797,0.844l0.703,0.891l0.635,0.937l0.537,0.959l0.469,0.984
		l0.375,1.031l0.281,1.057l0.213,1.099l0.115,1.125L727.846,409.46L727.846,409.46z M707.531,400.279v17.336h2.156v-7.426h1.5h0.469
		l0.447,0.021l0.396,0.047l0.4,0.047l0.349,0.047l0.328,0.094l0.307,0.072l0.256,0.115l0.26,0.119l0.209,0.115l0.213,0.166
		l0.23,0.188l0.26,0.281l0.281,0.302l0.281,0.375l0.307,0.422l0.328,0.469l0.35,0.541l0.349,0.584l0.375,0.635l1.666,2.786h2.65
		l-1.688-3.093l-0.094-0.162l-0.119-0.166l-0.119-0.188l-0.115-0.188l-0.141-0.209l-0.141-0.188l-0.141-0.213l-0.166-0.234
		l-0.162-0.234l-0.161-0.234l-0.167-0.234l-0.166-0.208l-0.162-0.214l-0.141-0.188l-0.119-0.161l-0.136-0.166l-0.119-0.141
		l-0.12-0.115l-0.094-0.094l-0.089-0.094l-0.094-0.072l-0.099-0.068l-0.114-0.072l-0.141-0.068l-0.141-0.072l-0.141-0.068
		l-0.162-0.072l-0.188-0.068l-0.188-0.072l-0.213-0.068l0.447-0.072l0.443-0.094l0.396-0.094l0.375-0.115l0.375-0.141l0.333-0.141
		l0.302-0.166l0.303-0.162l0.26-0.188l0.234-0.213l0.303-0.303l0.26-0.328l0.234-0.328l0.213-0.354l0.162-0.35l0.141-0.374
		l0.094-0.375l0.072-0.401l0.047-0.421l0.021-0.422l-0.021-0.396l-0.047-0.4l-0.072-0.396l-0.094-0.354l-0.141-0.375l-0.188-0.328
		l-0.188-0.328l-0.234-0.303l-0.281-0.307l-0.307-0.276l-0.35-0.26l-0.375-0.234l-0.422-0.214l-0.468-0.183l-0.49-0.166l-0.541-0.12
		l-0.584-0.093l-0.635-0.09l-0.682-0.025l-0.699-0.021H707.531L707.531,400.279z M709.687,402.107h3.4h0.749l0.699,0.042
		l0.635,0.047l0.563,0.072l0.516,0.068l0.469,0.119l0.4,0.115l0.328,0.141l0.276,0.166l0.214,0.166l0.187,0.184l0.167,0.213
		l0.141,0.209l0.136,0.213l0.094,0.209l0.099,0.238l0.047,0.23l0.047,0.234l0.042,0.26v0.256v0.166l-0.021,0.188l-0.021,0.162
		l-0.026,0.166l-0.047,0.161l-0.072,0.167l-0.068,0.161l-0.094,0.167l-0.094,0.161l-0.114,0.167l-0.12,0.14l-0.119,0.141
		l-0.114,0.141l-0.115,0.115l-0.146,0.119l-0.141,0.094l-0.161,0.094l-0.167,0.068l-0.161,0.072l-0.166,0.047l-0.256,0.068
		l-0.328,0.072l-0.375,0.068l-0.396,0.047l-0.494,0.025l-0.516,0.047l-0.563,0.021h-0.63l-0.683,0.025h-0.724h-2.275V402.107
		L709.687,402.107z"/>
</g>
</svg>
