<?xml version="1.0" encoding="UTF-8" standalone="no"?>
<!-- Created with Inkscape (http://www.inkscape.org/) -->
<svg
   xmlns:svg="http://www.w3.org/2000/svg"
   xmlns="http://www.w3.org/2000/svg"
   version="1.0"
   width="589"
   height="198"
   viewBox="-0.09 -0.465 589 198"
   id="svg2"
   xml:space="preserve">
	<defs
   id="defs4">
	</defs>
	<g
   id="g6">
		<path
   d="M 450.754,151.009 C 491.291,161.79 489.094,90.15 468.752,96.663 C 452.824,101.751 450.051,144.085 450.754,151.009 M 268.293,146.341 C 297.179,129.173 303.478,25.989 286.535,28.226 C 264.016,31.204 264.192,129.505 268.293,146.341 M 567.15,182.981 C 558.156,192.219 512.462,215.208 528.039,122.844 C 529.592,113.586 518.088,116.418 518.088,116.418 C 516.897,125.012 511.047,192.854 472.307,192.424 C 447.493,191.672 434.924,168.791 433.684,148.82 C 428.713,145.558 423.098,137.629 419.202,131.515 C 417.561,142.999 411.575,191.583 391.78,191.515 C 384.846,191.495 371.692,184.327 367.18,161.456 C 365.461,175.431 357.541,192.862 342.825,191.534 C 330.657,190.43 320.179,177.149 319.329,158.272 L 319.319,158.223 C 317.971,163.077 313.45,187.022 292.444,190.772 C 274.114,194.043 258.802,178.282 254.339,158.702 C 254.339,158.702 243.773,159.659 240.833,159.171 C 238.46,158.761 237.767,154.757 239.759,154.366 C 243.997,153.565 249.066,152.559 252.669,151.495 C 243.773,106.065 249.329,15.948 283.733,14.522 C 318.791,13.077 306.594,138.995 269.202,155.127 C 270.638,162.002 275.696,182.5 291.595,181.191 C 306.38,179.97 312.454,162.568 315.755,148.193 C 319.056,133.808 318.597,115.322 319.446,106.953 C 320.296,98.652 337.591,98.262 337.434,107.959 C 337.229,121.357 325.813,179.941 347.561,181.826 C 359.68,182.89 364.153,162.334 365.149,151.494 C 363.323,138.349 362.883,127.275 363.45,110.889 C 363.87,98.623 382.913,98.819 382.327,109.698 C 381.516,124.61 380.247,169.141 391.77,175.577 C 403.274,182.032 409.749,129.913 411.135,117.276 C 405.822,103.712 403.313,84.092 408.83,76.299 C 410.754,73.584 413.566,72.217 416.076,72.217 C 417.355,72.217 421.564,73.203 423.508,79.082 C 426.565,88.359 422.883,107.412 421.936,113.76 C 423.489,120.147 427.151,133.858 433.186,140.537 C 433.049,125.205 440.149,88.174 461.702,81.728 C 500.989,69.999 508.782,171.806 451.155,156.542 C 452.542,168.915 457.766,182.88 471.721,184.589 C 505.315,187.802 507.219,117.441 507.444,112.03 C 507.747,104.813 503.059,100.282 504.602,89.989 C 506.477,77.606 519.797,80.048 520.696,88.729 C 521.223,93.817 520.706,98.612 520.54,101.229 C 547.122,90.37 551.644,104.696 547.278,121.375 C 525.061,205.965 561.262,181.805 564.524,179.979 C 566.555,178.86 568.615,181.478 567.15,182.981 M 26.418,122.894 C 22.893,116.458 23.41,104.085 33.977,98.236 C 44.524,92.377 59.016,98.812 55.559,114.125 C 54.592,118.383 59.495,119.428 61.008,116.85 C 64.348,110.483 65.276,99.272 58.362,90.366 C 51.956,82.104 36.389,79.048 24.895,84.487 C 9.29,91.399 2.288,112.854 12.942,127.435 C 22.678,140.746 54.397,138.705 50.012,161.029 C 45.667,183.265 1.282,182.2 9.426,157.2 C 10.53,153.841 4.963,150.891 2.619,154.7 C -0.584,159.905 -3.68,175.286 11.701,184.368 C 28.195,194.104 67.795,190.335 69.806,161.79 C 71.526,137.366 34.573,137.806 26.418,122.894 M 329.094,82.61 C 335.647,83.02 339.641,78.743 339.66,72.239 C 339.68,65.764 334.709,60.882 329.543,60.862 C 323.195,60.842 319.182,66.946 319.494,72.542 C 319.729,76.546 322.561,82.2 329.094,82.61 M 86.838,187.864 C 94.045,188.284 98.449,183.86 98.469,177.102 C 98.479,170.383 93,165.334 87.317,165.315 C 80.335,165.295 75.911,171.624 76.253,177.424 C 76.506,181.575 79.631,187.444 86.838,187.864 M 171.819,196.731 C 111.829,197.395 90.647,136.809 92.2,98.157 C 94.68,36.136 132.268,-3.796 183.401,0.286 C 186.311,0.52 187.903,1.477 187.737,3.352 C 187.551,5.432 185.266,5.413 181.507,5.52 C 132.239,6.809 115.394,56.36 115.862,99.231 C 116.389,146.292 135.071,188.001 171.878,187.61 C 204.329,187.239 218.284,147.219 220.56,109.329 C 223.275,63.841 207.914,21.888 183.109,22.708 C 155.531,23.587 146.41,62.151 148.412,86.604 C 150.834,116.174 170.746,130.129 175.6,132.502 C 177.954,133.664 179.506,134.504 178.705,136.584 C 178.031,138.361 176.684,138.625 172.885,137.531 C 165.903,135.539 135.258,124.045 132.543,85.773 C 129.613,44.63 152.25,14.406 184.369,13.996 C 215.629,13.615 242.875,47.668 240.482,107.892 C 236.809,166.81 206.038,196.36 171.819,196.731 M 574.992,71.731 C 576.847,71.731 578.469,71.545 578.469,69.368 C 578.469,67.561 576.692,67.337 575.207,67.337 L 572.238,67.337 L 572.238,71.732 L 574.992,71.732 L 574.992,71.731 z M 572.238,80.247 L 569.787,80.247 L 569.787,65.247 L 575.461,65.247 C 579.084,65.247 580.93,66.497 580.93,69.554 C 580.93,72.279 579.27,73.392 577.024,73.646 L 581.223,80.248 L 578.43,80.248 L 574.553,73.822 L 572.239,73.822 L 572.239,80.247 L 572.238,80.247 z M 574.914,61.292 C 569.045,61.292 564.484,65.892 564.484,72.483 C 564.484,78.645 568.478,83.684 574.914,83.684 C 580.725,83.684 585.285,79.123 585.285,72.483 C 585.285,65.892 580.725,61.292 574.914,61.292 M 574.914,86.048 C 567.131,86.048 561.584,80.189 561.584,72.484 C 561.584,64.33 567.746,58.939 574.914,58.939 C 582.014,58.939 588.185,64.33 588.185,72.484 C 588.185,80.638 582.014,86.048 574.914,86.048"
   style="fill:#d21245"
   id="path8" />
	</g>
</svg>