<svg xmlns="http://www.w3.org/2000/svg" version="1.0" preserveAspectRatio="xMidYMid meet" viewBox="99.2 803.9 4676.8 413.1">

<g transform="translate(0.000000,2000.000000) scale(0.100000,-0.100000)" fill="#000000" stroke="none">
<path d="M8587 11953 l-407 -3 7 -28 c3 -15 7 -67 7 -117 0 -99 -25 -214 -77 -350 -28 -74 -1229 -2714 -1353 -2974 -116 -243 -236 -421 -378 -561 -42 -41 -76 -78 -76 -83 0 -4 543 -6 1208 -5 1022 3 1207 5 1204 17 -2 7 -3 61 -3 120 0 194 44 322 284 842 l162 350 340 208 c277 170 341 205 347 192 4 -9 100 -402 214 -873 l208 -858 3532 0 3531 0 277 397 c151 218 275 398 273 399 -1 1 -55 -9 -121 -22 -388 -79 -535 -86 -1707 -82 l-966 3 253 550 253 550 738 3 c961 4 1188 -7 1476 -73 62 -14 124 -28 138 -31 25 -6 30 3 228 436 111 243 200 444 198 447 -3 3 -70 -7 -149 -21 -395 -72 -511 -78 -1500 -74 l-817 3 219 475 219 475 943 3 c1126 3 1247 -3 1565 -81 82 -20 93 -21 98 -8 2 9 20 81 39 161 19 80 60 248 90 373 31 126 56 232 56 238 0 5 -903 9 -2365 9 l-2365 0 6 -88 c13 -183 -35 -345 -229 -767 -30 -66 -307 -672 -616 -1348 -576 -1261 -643 -1403 -714 -1516 -57 -91 -137 -201 -146 -201 -10 0 -118 217 -169 340 -73 176 -139 375 -714 2163 -52 160 -59 190 -47 201 8 8 201 123 429 256 228 134 557 326 730 428 472 277 639 360 955 472 66 24 124 47 130 52 5 4 -417 8 -937 8 l-946 0 -26 -82 c-64 -204 -171 -304 -621 -586 -697 -438 -1890 -1180 -1892 -1178 -4 4 501 1109 574 1256 91 183 202 346 323 473 55 58 100 108 100 111 0 6 -1068 5 -2013 -1z"/>
<path d="M20946 11949 c-804 -48 -1335 -401 -1694 -1124 -103 -208 -841 -1830 -885 -1945 -63 -166 -88 -279 -94 -416 -5 -107 -3 -130 18 -199 31 -105 84 -182 167 -243 105 -77 174 -107 332 -142 231 -51 356 -53 2230 -45 l1625 8 338 489 c186 270 336 492 334 495 -3 2 -51 -5 -108 -16 -165 -31 -430 -69 -640 -91 -309 -31 -652 -42 -1254 -38 -549 3 -561 3 -607 25 -55 25 -68 46 -68 107 0 82 12 111 568 1315 341 740 370 799 419 852 58 62 125 99 213 118 41 9 283 12 955 9 889 -4 901 -4 1024 -27 68 -12 180 -38 249 -57 69 -19 129 -31 132 -27 12 14 239 917 236 938 -3 20 -11 20 -1682 21 -923 1 -1737 -2 -1808 -7z"/>
<path d="M24965 11828 c-1 -146 -10 -192 -72 -358 -37 -98 -1303 -2880 -1387 -3049 -100 -198 -200 -342 -340 -488 l-88 -93 1208 0 1209 0 0 138 c1 216 8 237 373 1032 137 300 258 562 268 583 l18 37 774 0 c615 0 773 -3 769 -12 -31 -78 -550 -1204 -582 -1264 -49 -89 -145 -237 -194 -299 -18 -22 -71 -79 -118 -127 l-87 -88 1210 0 1209 0 0 133 c1 149 17 227 84 395 49 123 1326 2913 1394 3047 79 155 194 319 307 438 l102 107 -1209 0 -1208 0 0 -132 c-1 -214 -13 -248 -347 -985 l-242 -533 -778 0 -778 0 14 33 c48 110 433 942 480 1034 105 211 191 335 336 487 l92 96 -1208 0 -1209 0 0 -132z"/>
<path d="M31185 11828 c0 -150 -16 -224 -84 -395 -30 -77 -964 -2131 -1304 -2870 -127 -276 -248 -462 -406 -625 l-94 -98 2409 0 2410 0 272 392 c149 215 270 393 268 395 -1 2 -56 -8 -122 -21 -125 -26 -276 -49 -434 -67 -115 -13 -2230 -25 -2230 -12 0 4 112 253 249 553 l248 545 799 3 c998 4 1165 -5 1479 -82 55 -13 101 -23 103 -21 6 6 410 890 408 892 -1 1 -69 -11 -152 -26 -194 -38 -360 -59 -564 -71 -229 -14 -1750 -13 -1750 1 0 12 419 928 433 947 7 9 191 12 861 12 1122 -1 1330 -11 1629 -85 60 -15 110 -25 112 -23 4 4 185 764 185 777 0 8 -715 11 -2362 11 l-2363 0 0 -132z"/>
<path d="M36413 11933 c62 -124 45 -298 -52 -535 -62 -152 -1297 -2851 -1371 -2998 -108 -211 -246 -402 -373 -515 l-51 -45 1215 0 1216 0 -9 63 c-21 144 23 332 138 592 29 66 156 347 283 625 l230 505 320 3 c298 2 320 1 324 -15 3 -10 43 -413 88 -895 l84 -878 1166 0 1167 0 -30 55 c-42 78 -65 165 -98 375 -16 102 -77 442 -135 756 -58 315 -105 579 -105 587 0 17 -6 16 225 37 66 6 159 19 207 30 300 66 521 247 676 555 61 122 380 829 417 925 77 198 86 363 27 483 -75 151 -261 244 -592 294 -106 16 -300 17 -2548 20 l-2433 4 14 -28z m3370 -672 c51 -16 71 -50 64 -104 -8 -56 -273 -646 -318 -705 -49 -65 -95 -99 -164 -119 -54 -15 -131 -17 -732 -21 -370 -2 -673 0 -673 4 0 6 99 220 378 822 l67 143 670 -4 c495 -2 680 -7 708 -16z"/>
<path d="M43585 11950 c-610 -65 -1075 -381 -1340 -910 -44 -87 -380 -825 -462 -1015 -88 -202 -116 -310 -117 -440 0 -89 3 -106 27 -157 60 -123 194 -195 447 -239 44 -8 428 -14 1195 -18 1225 -7 1185 -5 1227 -61 17 -23 17 -29 5 -70 -16 -53 -152 -351 -181 -396 -24 -37 -70 -70 -128 -92 -37 -14 -161 -17 -933 -24 -1087 -11 -1568 -6 -1713 17 -126 20 -251 55 -355 100 -53 23 -79 30 -82 22 -7 -21 -195 -812 -195 -820 0 -4 912 -6 2028 -4 1807 3 2039 5 2137 19 455 68 747 199 995 448 128 127 216 251 309 430 98 192 544 1171 571 1255 27 87 37 233 20 304 -15 65 -68 145 -128 194 -109 88 -262 138 -552 179 -46 6 -466 13 -1095 17 -931 5 -1023 7 -1058 23 -40 18 -62 57 -51 92 14 49 139 314 165 353 35 50 76 76 155 100 54 16 146 18 1179 21 729 2 1172 -1 1269 -7 174 -13 308 -38 452 -86 56 -19 107 -35 113 -35 7 0 271 781 271 804 0 9 -4092 5 -4175 -4z"/>
<path d="M3580 11939 c-580 -67 -1033 -368 -1294 -859 -72 -137 -522 -1139 -555 -1238 -123 -367 -26 -561 318 -637 183 -41 309 -45 1354 -45 604 0 1019 -4 1062 -10 151 -22 154 -56 34 -319 -99 -216 -132 -259 -226 -288 -55 -17 -132 -18 -1318 -18 -1182 0 -1266 1 -1365 19 -110 19 -242 59 -331 101 -30 13 -56 21 -60 17 -3 -4 -50 -187 -104 -407 -54 -220 -100 -406 -103 -413 -4 -10 371 -12 2019 -9 2194 4 2082 1 2354 57 513 106 870 382 1110 859 108 217 527 1137 557 1226 27 78 31 105 32 200 1 105 0 113 -32 177 -82 167 -259 254 -627 309 -56 8 -393 14 -1105 18 -1123 7 -1089 5 -1118 65 -12 25 -11 35 8 88 44 122 147 323 181 355 19 17 63 42 99 55 l65 23 1160 3 c779 2 1201 0 1285 -8 154 -13 276 -38 420 -86 61 -20 112 -35 114 -33 4 6 186 784 186 798 0 13 -4002 13 -4120 0z"/>
<path d="M46539 8449 c-97 -15 -176 -74 -221 -166 -28 -57 -32 -77 -32 -137 2 -132 76 -239 197 -285 180 -67 376 46 405 233 34 213 -138 388 -349 355z m173 -95 c23 -16 56 -48 72 -71 25 -36 30 -54 34 -120 4 -71 1 -83 -25 -133 -71 -136 -249 -169 -356 -65 -51 49 -69 88 -75 162 -8 106 45 204 133 245 63 29 161 21 217 -18z"/>
<path d="M46478 8313 c-16 -4 -18 -21 -18 -174 l0 -169 40 0 40 0 0 70 0 70 28 0 c33 0 58 -23 66 -62 3 -16 8 -39 11 -53 5 -21 11 -25 44 -25 l39 0 -14 68 c-9 40 -22 73 -33 82 -17 14 -17 16 11 41 49 46 35 119 -27 145 -32 13 -147 18 -187 7z m155 -75 c27 -32 3 -62 -52 -66 l-41 -3 0 52 0 51 38 -6 c20 -4 45 -16 55 -28z"/>
</g>
</svg>